# xmcd
#
# Track frame offsets:
#	150
#	18232
#	32286
#	42353
#	56148
#	71220
#	83905
#	96723
#	111796
#	127202
#	137617
#	150808
#	162873
#	174223
#	192768
#	207037
#	220406
#	232186
#	243745
#	256357
#
# Disc length: 3606 seconds
#
# Revision: 0
# Processed by: cddbd v1.4PL0 Copyright (c) Steve Scherf et al.
# Submitted via: EasyCDDAExtractor 4.6.0.1
#
DISCID=1b0e1414
DTITLE=Frank Sinatra - 20 Grandes Exitos
DYEAR=1900
DGENRE=Ballad
TTITLE0=Night And Day
TTITLE1=Begin The Beguine
TTITLE2=As Time Goes By
TTITLE3=Three Coins In The Fountain
TTITLE4=Stormy Weather
TTITLE5=April In Paris
TTITLE6=Autumn Leaves
TTITLE7=Around The World
TTITLE8=Sentimental Jorney
TTITLE9=Dancing In The Dark
TTITLE10=Dream
TTITLE11=On the Sunny Side Of The Street
TTITLE12=My Funny Valentine
TTITLE13=Ol' Man River
TTITLE14=With A Song In My Heart
TTITLE15=From Here To Eternity
TTITLE16=Lonly Hav Eyes For You
TTITLE17=It's Been A Long Long Time
TTITLE18=That Old Black Magic
TTITLE19=White Christmas
EXTD=
EXTT0=
EXTT1=
EXTT2=
EXTT3=
EXTT4=
EXTT5=
EXTT6=
EXTT7=
EXTT8=
EXTT9=
EXTT10=
EXTT11=
EXTT12=
EXTT13=
EXTT14=
EXTT15=
EXTT16=
EXTT17=
EXTT18=
EXTT19=
PLAYORDER=
